<?xml version="1.0" encoding="UTF-8"?>
<svg id="Layer_1" data-name="Layer 1" xmlns="http://www.w3.org/2000/svg" version="1.1" viewBox="0 0 256 256">
  <defs>
    <style>
      .cls-1 {
        fill: #f8a838;
      }

      .cls-1, .cls-2, .cls-3 {
        stroke-width: 0px;
      }

      .cls-2 {
        fill: #a87225;
      }

      .cls-3 {
        fill: #483e57;
      }
    </style>
  </defs>
  <path class="cls-2" d="M219.5,178.9c20.8-13.2,33.9-32.4,33.9-53.9,0-39.8-45.1-72-100.8-72S51.9,85.3,51.9,125.1s45.1,72,100.8,72,22.7-1.4,33.1-4l51.1,25.3-17.4-39.4Z"/>
  <path class="cls-1" d="M38.9,167C17.2,153.9,3.2,134.3,2.6,112,1.4,70.8,46.6,36.1,103.5,34.5c56.9-1.6,103.9,30.6,105,71.8,1.2,41.2-44,76-100.9,77.6-11.8.3-23.2-.8-33.9-3.2l-50.6,40.9,15.7-54.6Z"/>
  <circle class="cls-3" cx="58.4" cy="109.2" r="15.1"/>
  <circle class="cls-3" cx="105.6" cy="109.2" r="15.1"/>
  <circle class="cls-3" cx="152.7" cy="109.2" r="15.1"/>
</svg>