<?xml version="1.0" encoding="UTF-8"?>
<svg id="Layer_1" data-name="Layer 1" xmlns="http://www.w3.org/2000/svg" version="1.1" viewBox="0 0 256 256">
  <defs>
    <style>
      .cls-1 {
        fill: #fff;
        stroke-width: 0px;
      }
    </style>
  </defs>
  <g>
    <path class="cls-1" d="M250.9,104.9c-1.4-55.5-47.5-100.7-102.6-101.3-5.9,0-11-1-11.1,8.3,0,8.5,3.7,9.2,10.3,9.1,18.5-.2,35.8,4.5,50.6,15.8,23,17.5,35.7,40.7,36.2,69.8.1,7.1,1.5,10.2,9.5,9.9,10.3-.3,6.1-7.4,7-11.7Z"/>
    <path class="cls-1" d="M145.6,40.5c-6.6.4-8.5,3-8.6,9.1,0,5.8,2.5,6.7,7.6,7,35.4,2.2,50.7,17.3,54.6,53.8.5,4.4,1.7,5.7,6,6.1,9.4.9,10-4.5,9.2-10.3-.6-36.9-33.5-67.6-68.9-65.7Z"/>
    <path class="cls-1" d="M146.1,76.6c-3.2.5-9.2-2-8.7,5.8.2,3.7-2.2,9,5,9.2,13.1.5,20.4,7.7,22.3,20.5,1,6.9,6.2,4,9.9,4.3,4.5.4,4.3-3,4.4-6.2.3-19.1-12.8-33-32.8-33.6Z"/>
  </g>
  <path class="cls-1" d="M226.8,183.5c-5.5-5.8-11.6-11.1-17.5-16.6-3.9-5.3-8.3-10.2-13.6-14.2-4.9-9-9.3-7.3-15.1-.3-5.5,6.8-12.3,12.6-18.7,18.6-7.9,7.5-15.9,6.7-23.3-.7-20-20.1-39.8-40.4-59.7-60.7-4.9-5-5.5-10.1-1.9-16.6,4.8-8.6,12.7-14.1,19.2-21,8.4-3.7,9.8-8.3,2.3-14.6-4-3.3-7.6-7.1-11.4-10.7-9.5-10-19.5-19.5-28.3-30.1-6-7.2-9.8-5.6-14.9.6-5.2,6.2-10.9,11.9-16.8,17.4-32.3,29.4-26.9,69.9.4,96.2,29.6,28.5,58.1,58,87.1,87,7.1,7.1,15.4,12.7,24.3,17.2,30.7,15.5,67.8,11.1,87.6-10.3,13.4-14.5,13.5-27.3.1-41.3Z"/>
</svg>