<?xml version="1.0" encoding="UTF-8"?>
<svg id="Layer_1" data-name="Layer 1" xmlns="http://www.w3.org/2000/svg" version="1.1" viewBox="0 0 256 256">
  <defs>
    <style>
      .cls-1 {
        fill: #ee4825;
      }

      .cls-1, .cls-2, .cls-3, .cls-4 {
        stroke-width: 0px;
      }

      .cls-2 {
        opacity: .8;
      }

      .cls-2, .cls-3 {
        fill: #fff;
      }

      .cls-3 {
        opacity: .5;
      }

      .cls-4 {
        fill: #005ed0;
      }
    </style>
  </defs>
  <path class="cls-3" d="M246.2,26.5v-4.3h-12.6V4.2h-4.3v18h-50.8V4.2h-4.3v18h-50.8V4.2h-4.3v18h-50.8V4.2h-4.3v18H18.3v4.3h45.7v50.8H18.3v4.3h45.7v50.8H18.3v4.3h45.7v50.8H18.3v4.3h45.7v43.9h4.3v-43.9h50.8v43.9h4.3v-43.9h50.8v43.9h4.3v-43.9h50.8v43.9h4.3v-43.9h12.6v-4.3h-12.6v-50.8h12.6v-4.3h-12.6v-50.8h12.6v-4.3h-12.6V26.5h12.6ZM174.2,26.5v50.8h-50.8V26.5h50.8ZM174.2,81.6v50.8h-50.8v-50.8h50.8ZM68.3,26.5h50.8v50.8h-50.8V26.5ZM68.3,81.6h50.8v50.8h-50.8v-50.8ZM68.3,187.5v-50.8h50.8v50.8h-50.8ZM123.4,187.5v-50.8h50.8v50.8h-50.8ZM229.3,187.5h-50.8v-50.8h50.8v50.8ZM229.3,132.4h-50.8v-50.8h50.8v50.8ZM229.3,77.3h-50.8V26.5h50.8v50.8Z"/>
  <polygon class="cls-1" points="41.1 235.5 20.9 236.1 63.5 169.9 170.8 154.5 239.1 64.9 252.3 75 179.9 170 73.3 185.2 41.1 235.5"/>
  <polygon class="cls-4" points="19 183.4 19 165 100.6 119.4 135 30.1 221.1 9.1 224.9 24.7 147 43.7 113.4 130.5 19 183.4"/>
  <polygon class="cls-2" points="253.9 254.1 2.1 254.1 2.1 4.2 19 4.2 19 235.5 253.9 235.5 253.9 254.1"/>
</svg>