<?xml version="1.0" encoding="UTF-8"?>
<svg id="Layer_1" data-name="Layer 1" xmlns="http://www.w3.org/2000/svg" version="1.1" viewBox="0 0 256 256">
  <defs>
    <style>
      .cls-1 {
        fill: #ec1e24;
      }

      .cls-1, .cls-2 {
        stroke-width: 0px;
      }

      .cls-2 {
        fill: #fff;
        opacity: .8;
      }
    </style>
  </defs>
  <path class="cls-2" d="M97.5,36.1c-3.5-2.8-6.6-1.8-9.3,1.5-3.3,4-3.3,5.9-6.2,9.3-3-1.6-8.2-1.2-10.1-1.3-9-.4-18.1-.8-27.1-.2-2.5.2-6.6,3.7-6.7,5.9-.7,12.2-.6,24.5-.3,36.7,0,4.9,3.1,7,8.3,7,11.9,0,23.7.3,35.6.9,4.7.3,6.7-1.6,6.8-6,0-4.1-.3-8.3-.3-12.4,0-23.1-1.9-22.5,9.2-32.5,0,0,.2-.3.3-.5,1.8-2.9,3.1-5.9-.2-8.5h0ZM78.2,74.8v7.6h0c0,2.9-2.3,5.3-5.2,5.3h-24.5c-1.4,0-2.6-1.2-2.6-2.6,0-8.7.9-20.8,1.3-28,.2-3.7,5-3.5,9-3.3,4.5.2,10.3.5,15.3.6,2.1,0,3.3,2.5,1.9,4.2-2.3,2.9-5.3,6.2-8.6,9.1-1.1,1-2.9.8-3.8-.4-.7-.9-1.3-1.8-1.9-2.8-2.3-3.6-5.4-3.1-8.2-1.2-2.9,2-3.6,4.7-.6,7.5,3.4,3.2,6.6,6.7,10.2,9.6,2.7,2.2,5.5,1.7,7.9-1.1.8-1,1.7-2,2.6-3,0,0,.2-.2.2-.3.8-.9,1.6-1.9,2.5-2.8h0c1.5-1.6,2.9-3.2,4.5-4.9v6.7-.2Z"/>
  <path class="cls-2" d="M97.5,135.6c-3.5-2.8-6.6-1.8-9.3,1.5-3.3,4-3.3,5.9-6.2,9.3-3-1.6-8.2-1.2-10.1-1.3-9-.4-18.1-.8-27.1-.2-2.5.2-6.6,3.7-6.7,5.9-.7,12.2-.6,24.5-.3,36.7,0,4.9,3.1,7,8.3,7,11.9,0,23.7.3,35.6.9,4.7.3,6.7-1.6,6.8-6,0-4.1-.3-8.3-.3-12.4,0-23.1-1.9-22.5,9.2-32.5,0-.1.2-.3.3-.5,1.8-2.9,3.1-5.9-.2-8.5h0ZM78.2,174.3v7.6h0c0,2.9-2.3,5.3-5.2,5.3h-24.5c-1.4,0-2.6-1.2-2.6-2.6,0-8.7.9-20.8,1.3-28,.2-3.7,5-3.5,9-3.3,4.5.2,10.3.5,15.3.6,2.1,0,3.3,2.5,1.9,4.2-2.3,2.9-5.3,6.2-8.6,9.1-1.1,1-2.9.8-3.8-.4-.7-.9-1.3-1.8-1.9-2.8-2.3-3.6-5.4-3.1-8.2-1.2-2.9,2-3.6,4.7-.6,7.5,3.4,3.2,6.6,6.7,10.2,9.6,2.7,2.2,5.5,1.7,7.9-1.1.8-1,1.7-2,2.6-3,0,0,.2-.2.2-.3.8-.9,1.6-1.9,2.5-2.8h0c1.5-1.6,2.9-3.2,4.5-4.9v6.7-.2Z"/>
  <path class="cls-2" d="M138,238.2c-3.6.2-8.8,0-37.2.2H15.4V16.4h221.2v117.8c2.9,1.3,6.2,2.8,9.5,4.4V18.2c0-8.5-3.6-12.1-12-12.2-2.6,0-5.3.3-7.9.3-69.1,0-138.2.2-207.3.2s-13.9,2-13.9,13.7c.2,82.3.3,131.6.5,214,0,9.9,2.7,12.6,12.8,12.7,26.6.2,94.7.2,121.3.5l-1.7-9.2h0Z"/>
  <path class="cls-2" d="M233,206c-.5-.8-1.5-1.1-2.4-1.5-3.1-1.3-3.5-3.2-2.3-6.1-2.3-6.1-7.7-17.8-7.7-17.8-3.3-4.7-6.4-9.5-9.7-14.2-1.4-2.1-2.7-4.3-4.3-6.3-4.2-5.7-9.6-8.9-17.2-7.8l-13.1,6.4c-4.3,1.8-10.1,5.5-14.8,7.5-1.1-1.5-2.1-2.9-3-4.3h0s-4.4-6.5-4.4-6.5h0c-1-1.3-2-2.6-2.9-4-5.2-7.8-11.4-7.2-16.8-4.2-5.9,3.3-8.1,10.7-4.9,17.4,2.1,4.3,5,8.2,7.5,12.3l12.6,16.7s.3.2-.4.3h-.7c-1.3.3-2.3.6-3.5.7-2,.9-4.3,2.7-6.1,6.1,0,2.9-.3,5.6,0,8.2.7,4.6,4,7.3,7.9,9.3,5.3,2.7,15.1,7,17.6,8.4s3.3,1.5,3.6,1.6c3.1.8,14.9,5.4,16.6,6.7.7.4,1.4.9,1.9,1.4,3.3,3.6,6.3,7.4,9.5,11.2,4.5-4.7,4.4-4.6,3.3-10.3-.2-1.3.5-3.4,1.5-4.1,7.2-5,14.5-9.9,21.9-14.5,7.3-4.4,5.4-4.1,10.2,1.8,4.2,5.3,4.5,5.4,10.6,1.1-3.5-5.1-7-10.2-10.6-15.2h0ZM219.5,210.9c-7.9,5.7-15.8,11.5-23.8,17-1,.7-2.9.2-4.3,0-2.1-.5-4.2-1.4-6.2-1.9-4-1-8.2-1.1-11.8-2.9-8.1-4.1-15.7-9-23.5-13.5-2.5-1.4-4-3.2-2.2-6.2,1.9-3.1,4.5-2.4,6.6-.8,4,3.1,7.7,6.7,11.5,10,2,1.8,4.1,3,7.8.6-2.2-3.5-4.1-7.2-6.4-10.5-9.6-13.3-19.4-26.5-29-39.7-.5-.7-.9-1.5-1.3-2.2-1.5-2.9-.5-5.4,1.9-7.1,2.7-1.9,4.6,0,6,2.1,4.6,6.6,9.2,13.3,13.6,20,2.8,4.1,5.5,8.3,8.3,12.4,1.3,1.8,2.7,3.6,5.2,1.8,2-1.5,2.4-3.3,1-5.5-1.7-2.6-3.6-5.1-5-7.9-.5-1-.2-3.5.3-3.7,1.5-.7,4-1.3,5-.5,2.3,1.7,3.9,4.5,6.1,6.4.9.8,2.9,1.1,4.1.6.6-.2,1.1-2.6.6-3.7-1.2-3-2.9-5.8-4.5-8.9,2.6-3.1,4.9-2.7,7.2,0,1.6,2,3,4.2,4.9,5.8,1,.9,2.7,1,4,1.5.2-1.6.9-3.3.5-4.6-.9-2.6-2.6-4.9-4-7.3.2-.4.5-.8.8-1.3,1.7.5,3.6.9,5.3,1.6.8.3,1.5,1.3,2,2.1,6.1,9.5,12.3,19,18.2,28.6.8,1.3.8,3.3.8,4.9-.3,3.7-.2,7.1,3.7,9.7-1.3,1.1-2.3,2.1-3.3,2.9h-.1Z"/>
  <polygon class="cls-1" points="210.3 71.3 182.7 71.3 182.7 43.8 163.5 43.8 163.5 71.3 136 71.3 136 90.5 163.5 90.5 163.5 118 182.7 118 182.7 90.5 210.3 90.5 210.3 71.3"/>
</svg>