<?xml version="1.0" encoding="UTF-8"?>
<svg id="Layer_1" data-name="Layer 1" xmlns="http://www.w3.org/2000/svg" version="1.1" viewBox="0 0 256 256">
  <defs>
    <style>
      .cls-1 {
        fill: red;
      }

      .cls-1, .cls-2 {
        stroke-width: 0px;
      }

      .cls-2 {
        fill: #fff;
        opacity: .8;
      }
    </style>
  </defs>
  <path class="cls-1" d="M54,118.3v-2.3c.3-.2.6-.3.8-.7.5-1.1,1.4-1.6,2.5-2,3.8-.3,7.6-.2,11.3,0,2.3,0,3.7,1.9,3.6,4.2,0,2.2-1.8,3.7-4.1,3.8h-6c-3,0-6.1.5-7.9-2.7,0,0,0,0-.2-.2h0Z"/>
  <path class="cls-1" d="M129.9,46.5h2.6c1.1.6,2.1,1.4,2.6,2.6.4,3.7.1,7.4.2,11.1,0,.5,0,1-.2,1.4-.5,1.8-2.3,3-4.2,2.8-1.8-.2-3.5-1.6-3.5-3.4,0-3.9-.2-7.9,0-11.8.5-1.2,1.5-1.9,2.5-2.6h0Z"/>
  <path class="cls-1" d="M202,116v2.3c-1,2.1-2.6,3-4.9,2.9-2.7,0-5.4,0-8,0-1.9,0-3.5-.5-4.6-2.1v-.2c-.3-1-.4-2.1,0-3.1,0-.2.1-.3.2-.5,1.1-1.6,2.7-2.2,4.6-2.1,2.6,0,5.2,0,7.8,0,2.4,0,4.1.7,5.1,2.9h-.2Z"/>
  <path class="cls-2" d="M175.2,149.2c3.9,1.7,5.6,4.6,5.3,8.8-.1,1.4,0,2.9,0,4.3,0,4.1-3.4,7.4-7.5,7.4h-87.8c-2.8,0-5.2-.7-7.1-2.7-2.2-3.5-2.5-10.4-.6-14.6,1-1.4,2.5-2.4,4-3.2,1.1-.1,2.1-.2,3.2-.4h87.7c1,.1,1.9.2,2.9.3h0Z"/>
  <path class="cls-1" d="M166.4,148.8h-76.5c.2-14-.4-28.1.3-42.1.5-2,1-4,1.5-6.1.4-1.1.9-2.1,1.3-3.2.9-2,2.1-3.9,3.3-5.8,2.6-3.5,5.7-6.6,9.3-9.2,2-1.1,4.1-2.3,6.1-3.4,1.1-.4,2.1-.8,3.2-1.2,2-.5,4-1,6.1-1.4,1,0,1.9,0,2.9-.3h8.4c2.3.4,4.6.7,6.9,1.1.8.2,1.5.4,2.3.6,1.2.5,2.5,1,3.7,1.5,3.2,1.6,6.2,3.6,8.9,5.8,1.1,1.1,2.3,2.3,3.4,3.4,1.5,2,3,3.9,4.2,6,.9,2,1.9,4,2.8,6.1.3,1.2.6,2.3,1,3.5,0,.3.1.5.2.8v.4c0,.4,0,.7.2,1.1v.7c0,.5.2,1.1.3,1.6v40.2h.2ZM116.7,90.2c-.3,0-.4,0-.5,0-9.3,5.1-14.9,12.8-15.9,23.5-.7,7.3,0,14.7-.3,22.1,0,.7.2,1,1,1h5.5c.9,0,1.1-.3,1-1.1v-1.4c0-12,1.4-23.8,5.5-35.2,1.1-3,2.4-5.9,3.8-8.9h0Z"/>
  <path class="cls-1" d="M63.4,82.6c1.5-2.9,3.7-3.6,6.5-1.9.9.5,1.8,1,2.6,1.5,1.6.9,3.1,1.8,4.7,2.8,3.2,1.9,3.6,4.4,1.1,7.1-.9.5-1.9.7-2.9.8-1.1-.2-1.9-.9-2.9-1.3h-.2c-.9-.7-1.9-1.3-3-1.7-1.2-.7-2.3-1.5-3.5-2.1-2-1.1-2.9-2.7-2.4-5v-.2Z"/>
  <path class="cls-1" d="M89.8,64.3c-.5-1-1.1-2-1.6-3-1-2-.4-4.3,1.5-5.4,1.9-1.1,4.2-.6,5.4,1.4.8,1.3,1.6,2.6,2.4,3.9,1,2.1,2.4,3.9,3.2,6,0,1-.2,1.9-.5,2.8-.3.3-.5.6-.8.9-.8.6-1.7.8-2.7,1.1-1.2-.2-2.3-.6-3.1-1.4,0,0,0-.2-.2-.3-1.2-2-2.4-4-3.5-6h-.1Z"/>
  <path class="cls-1" d="M157.1,64.4c1.3-2.2,2.6-4.4,3.9-6.5,1.5-2.4,3.7-3.2,5.8-1.9,2,1.2,2.5,3.5,1.2,5.9-.5.8-.9,1.7-1.4,2.5-1,1.7-2.1,3.4-3,5.1-.7,1.3-1.8,2.2-3.3,2.5-.9,0-1.7,0-2.5-.5-.4-.4-.8-.7-1.2-1.1-.5-1-.9-2-.8-3.2.5-1,.9-1.9,1.4-2.9h0Z"/>
  <path class="cls-1" d="M184.7,81.6c.8-.5,1.7-.9,2.5-1.4,1.9-1,4.2-.3,5.3,1.4,1.2,1.9.7,4.1-1.3,5.4-1.2.8-2.4,1.5-3.7,2.2-2,1.1-4,2.2-6,3.3-1.1,0-2.1,0-3.2-.4-2.5-2.3-2.6-4.4-.2-6.8,0,0,.2,0,.2,0,2.1-1.2,4.2-2.5,6.3-3.7h0Z"/>
  <path class="cls-2" d="M249.7,176.7V18.7H6.3v157.9h115.2v16.9l-34.4,34.4,9.3,9.3,25.1-25.1v25.1h13.2v-24.9l24.9,24.9,9.3-9.3-34.2-34.2v-17.1h115ZM20.2,32.6h215.7v130.3H20.2V32.6Z"/>
</svg>