<?xml version="1.0" encoding="UTF-8"?>
<svg id="Layer_1" data-name="Layer 1" xmlns="http://www.w3.org/2000/svg" version="1.1" viewBox="0 0 256 256">
  <defs>
    <style>
      .cls-1 {
        fill: #010101;
      }

      .cls-1, .cls-2, .cls-3, .cls-4 {
        stroke-width: 0px;
      }

      .cls-2 {
        fill: #ec1e24;
      }

      .cls-3 {
        opacity: .8;
      }

      .cls-3, .cls-4 {
        fill: #fff;
      }
    </style>
  </defs>
  <g id="hands">
    <path class="cls-1" d="M111,32.7l.5.5-.5-.5Z"/>
    <path class="cls-1" d="M105.3,36.8l.2.4-.2-.4Z"/>
    <path class="cls-1" d="M103.5,39.5v.4-.4Z"/>
    <path class="cls-1" d="M101.8,40.2l.5.5-.5-.5M100.8,40.8l.5.5-.5-.5Z"/>
    <path class="cls-4" d="M86.5,46.6"/>
    <path class="cls-1" d="M99.1,41.7l.3.5-.3-.5"/>
    <path class="cls-1" d="M70.5,54.8l.5.5-.5-.5Z"/>
  </g>
  <path class="cls-3" d="M216.9,52.6c-5.4-.6-9.8,2.2-10.7,8-3.1,19.2-9,37.5-14.8,56-1,3.3-1.5,6.8-2.7,10.1-.5,1.4-2.2,3.3-3.3,3.3s-3.5-1.5-4.2-2.8c-.9-1.8-1.2-4.1-1.2-6.2,0-10.2.7-20.4.3-30.6-.9-21.9-2.2-43.7-3.7-65.5-.4-6.5-5.4-9.8-12.3-9.3-5.9.4-10.6,5-10.5,10.7.4,27.4.8,54.8,1.2,82.1,0,2.7-.3,5.4-.5,8.2-.5,0-1.1.2-1.6.3-.7-1.3-1.7-2.5-2.1-3.9-.8-3-1.5-6-1.9-9.1-1.8-12.6-3-25.3-5.4-37.8-3.3-17.1-7.6-34-11.3-51-1.6-7.2-5.9-11-12.4-10.3-6.2.7-11.6,7-10.8,13.4,2.6,21.3,5,42.7,8.3,63.9,1.8,11.6,5.1,23,7.6,34.6.4,1.9.3,4.1-.4,5.9-1,2.7-3.7,3-5.2.5-1.4-2.2-2.4-4.8-3.1-7.4-4.1-14.7-8.1-29.5-11.9-44.3-2.5-9.6-4.6-19.3-7-28.9-1.1-4.7-4.4-7.4-9-7.9-4.7-.5-8.7,1.5-10.4,5.9-1.1,3-1.8,6.5-1.6,9.8,1,22.2,3.6,44.1,9.8,65.6,5.8,20.3,8.5,40.7,4.1,61.6-.7,3.4-1.6,6.9-3.1,9.9-3,5.9-8.3,7.4-14.3,4.7-1.5-.7-2.8-1.6-4.2-2.5-12.2-7.6-24.4-15.3-38.7-18.5-6.3-1.4-12,.1-14.8,4.4-2.6,3.8-1.9,9.6,1.8,14.6.9,1.2,1.8,2.4,3,3.3,7.7,5.3,15.4,10.7,23.3,15.8,6.6,4.2,13.6,8,20.4,12.1,2.4,1.4,4.7,3.2,7.1,4.6,9.6,5.7,19.8,10.5,28.6,17.2,13.3,10,27.8,12.8,43.7,10.9,11.3-1.4,22.6-3,33.8-4.7,15.6-2.4,25.7-10.8,29.9-26.4,5.2-19.4,7.6-38.9,6.4-59-.6-10.3-2.1-20.6.4-30.9,2.4-9.6,5-19.3,6.5-29.1,2.2-13.5,3.7-27.1,5-40.7.6-5.8-3-9.8-7.9-10.4l-.2-.2Z"/>
  <polygon class="cls-2" points="190.3 193.4 160.7 193.4 160.7 223 140.4 223 140.4 193.4 110.8 193.4 110.8 173.1 140.4 173.1 140.4 143.5 160.7 143.5 160.7 173.1 190.3 173.1 190.3 193.4"/>
</svg>