<?xml version="1.0" encoding="UTF-8"?>
<svg id="Layer_1" data-name="Layer 1" xmlns="http://www.w3.org/2000/svg" version="1.1" viewBox="0 0 256 256">
  <defs>
    <style>
      .cls-1 {
        fill: #ed2024;
      }

      .cls-1, .cls-2, .cls-3 {
        stroke-width: 0px;
      }

      .cls-2 {
        fill: #010101;
      }

      .cls-3 {
        fill: #fff;
      }
    </style>
  </defs>
  <g id="hands">
    <path class="cls-2" d="M128,0C57.3,0,0,57.3,0,128s57.3,128,128,128c0,0,20.9-5.4,7.1-4.5l.3-.3c1.2-1.5.5-5.1.5-6.9v-17.3c0-1.9-.5-7.1,1.2-8.4.8-.6,1.5,2.4,1.6,2.8,1.1,3.4,2.7,7.1,5.6,9.3.8.6,3.5,2.1,4.4.9.4-.5-5.9-6.4-6.6-7.4-5.3-7.3-7-14.7-5-23.5,4-17.4,20.2-19.6,32.9-27.8,8.3-5.3,12.9-13.7,17.7-22,2.8-4.8,5.1-9.5,9.2-13.4,1.1-1,3.6-3.7,5.3-3,1.3.5-1.1,3.1-1.4,3.6-2,3-5.2,7.1-2.6,10.6,4.2,5.6,9.1,6.5,12.8.6.6-1,2.3-2.9,2.2-4.1,0-.8-1.7,1.2-1.8,1.3-1.2,1.4-2.4,3.7-4.4,4-2.5.4-7.8-3.6-7.2-6.3.4-2,2.7-3.9,3.9-5.6,1-1.5,1.8-4.3,4-4.3,11,0,7.3,12.8,4.3,18.2-6.4,11.7-15,22.1-20.9,34.1-3.7,7.4-4.8,16.2-9.9,22.9-3.6,4.7-9.5,8.2-14.8,10.5-.8.3-5,2.1-2.2,2.8,3.4.8,7.8-2.1,10.6-3.8,11.4-7.1,13.5-18.3,18.6-29.6,6.6-14.5,20.2-27.1,24.5-42.5,1.5-5.6-2.3-8.7-1.9-13.4.2-2.3,2.3-5.5,3.7-7.3.5-.6,2.6-1.9,2.4-2.7-.4-1.9-2.6-4.5-3.2-6.8-1.2-4.7-.8-9.4-1.8-14-.7-3.2-2.4-6.3-3.2-9.5-2.1-8.1-4.5-15.2,1.4-22.4,1.6-1.9,4.7-4.8,7.5-4,1.8.5,1,6.6,1.4,8.4,1,4,3.3,6.9,4.8,10.6,1.7,4.4,2.5,9.4,3.6,14,2.1,8.4,6.7,18.7,6.4,27.4-.4,9.8-4.8,20.6-6.9,30.2-1.4,6.2-1.3,15.2-4.3,20.7-1.8,3.3-5.2,5.7-7.6,8.4-6.4,7.1-12.7,14.2-19.1,21.2-4.6,5.1-16.1,13.6-16.7,20.7-.1,1.4-.8,8.7.8,9.1-9.8,10.6-56.8,18.2-56.8,18.2,70.7,0,128-57.3,128-128S198.7,0,128,0ZM72,238.2c2.1-.2,1.3-6.9,1.2-8.4-.3-7-10.5-14-14.8-19-6.2-7.3-12.9-14.3-19.4-21.2-3.4-3.6-7.8-6.9-10.3-11.2-3.2-5.3-2.6-13.5-3.8-19.6-2-10.1-7.9-21.6-8-31.9,0-5.6,2.8-11.8,3.9-17.3,2.4-11.8,6.1-21.8,11.2-32.4,1-2.1.9-9.9,3.3-9.9s6,3.4,7.4,6c3.5,6.7,2.1,14.9,0,21.8-2.6,8.2-3,16.4-5.5,24.6-.6,2-5.7,3.9-5.7,4.4s3.4,1,3.9,1.4c2.3,1.6,4.3,5.4,5,8,1,4.2-3.8,7.9-2.2,12.9,5.1,16.1,19.2,28,25.5,43.6,4.7,11.6,7.4,22.4,18.8,29.6,2.9,1.9,9.6,5,13.1,3.2,1.6-.8-3.1-2.4-3.6-2.6-6.1-2.1-11.3-5.8-15.6-10.6-5.9-6.7-7.5-16.1-11.2-24-4.2-8.9-10.6-17-15.9-25.2-3.1-4.8-9.5-12.3-9.1-18.5.2-3.2,6.6-10.5,10.1-7.6,1.3,1.1,1.9,3.3,2.8,4.8,1,1.6,2.7,3.2,3.2,5,.6,2.6-4.8,7.1-7.3,6.4-1.9-.6-3.4-3.2-4.6-4.7,0-.2-2.1-2.7-2.3-1.9-.3,1.5,2.2,4.1,3,5.2,4,5.2,11.5,5,14.1-2.2,1.2-3.4-2.3-7-4-9.5-.4-.5-2.5-3-1.6-3.7,1.3-1,4.7,2.4,5.5,3.2,4.2,4.2,7.3,9.3,9.9,14.5,4,8,8.2,15.1,15.8,20.3,14.7,9.9,34.7,13.5,36.8,35.1.9,8.7-1.5,15.3-8.3,21-.4.3-4.5,3.4-2.6,3.7,3,.5,6.6-4.7,8-6.8.5-.7,1.2-2.9,2.3-2.9,1.7,0,1.3,5.8,1.3,6.8v16.8c0,1.6-.6,5.1.8,6.2,1.3,1,4.3.5,5.9.5-25.6,3-56.6-14-56.6-14h-.4Z"/>
    <path class="cls-2" d="M111,32.7l.5.5-.5-.5Z"/>
    <path class="cls-2" d="M105.3,36.8l.2.4-.2-.4Z"/>
    <path class="cls-2" d="M103.5,39.5v.4-.4Z"/>
    <path class="cls-2" d="M101.8,40.2l.5.5-.5-.5M100.8,40.8l.5.5-.5-.5Z"/>
    <path class="cls-3" d="M86.5,46.6"/>
    <path class="cls-2" d="M99.1,41.7l.3.5-.3-.5"/>
    <path class="cls-2" d="M70.5,54.8l.5.5-.5-.5Z"/>
    <path class="cls-2" d="M220.7,118l.5.5-.5-.5M222.1,118.8l.9.2-.9-.2M69.4,121.3l.5.5-.5-.5M70.7,122.2l.2.4-.2-.4Z"/>
  </g>
  <circle class="cls-3" cx="129.6" cy="87.1" r="72.4"/>
  <g id="sos">
    <g>
      <path class="cls-1" d="M129,13c-41,0-74.2,33.2-74.2,74.2s33.2,74.2,74.2,74.2,74.2-33.2,74.2-74.2S170,13,129,13ZM96.5,107c-5.1,1.2-10.9.2-15.1-2.8-4.1-2.9-5.8-7.5.3-10.1,1-.4,2.3,1.1,2.9,1.6,2.2,1.7,11,6,11.8.4.5-3.3-5.9-4.5-8.1-5.4-8.5-3.5-14.3-13.2-5.4-20.2,1.8-1.5,4.2-2.7,6.5-3.2,4.5-1.1,12.6.5,15.4,4.7,1.2,1.9-2.1,6.7-4.2,6.8-2.3,0-4.4-2.8-6.9-3-1.9-.2-5.1.7-5.1,3.1,0,3.6,9,4.6,11.5,5.9,9.9,5.2,6.5,19.9-3.8,22.3h.2ZM87.8,56.4c-.4,0-.6.2-.9,0-1.4-.2.6-4.1,1-4.7,2.2-3.4,5.5-6.1,8.7-8.5.5-.4,2.1-1.4,2.8-2.2,10.3-5.7,30.3-13.7,49.8-5.4,1.1.5,2.1,1.1,3,1.6.5.3,2.4,1.2,4.1,2.2.3.2.6.4.9.6,1.4.9,2.4,1.9,1.7,2.6-.3.4-.9.3-1.6,0-24.6-15.7-49.2-2.5-49.2-2.5-11.5,3.7-17.6,11.5-20.2,15.8h0v.4ZM138.6,153.3c-6.7.8-12.2.8-18.9,0-.7,0-7.7-1.8-7.2-2.5.6-.8,7.2,1.3,8.3,1.5,6.6,1.3,12.8,1.2,19.4-.1.7-.1,5.7-.8,5.6-.7-1.1,1.5-5.6,1.6-7.2,1.8h0ZM134.3,107.3c-25.4,4.8-34.5-35.3-8.1-40,26.2-4.7,33.9,35.1,8.1,40ZM172.6,106.9c-7.8,2.1-26-3.5-15.1-12.6,1.1-.9,2.5,1,3.2,1.6,2.4,1.9,10.9,5.5,11.7-.2.5-3.4-8.8-5.3-11.1-6.4-10.6-5.1-7.3-19.3,3.2-22.1,4.7-1.2,13.5.4,16.3,4.9,1.1,1.9-3.2,6.5-5.1,6.5s-3.9-2.8-6.3-3c-1.8-.2-4.8.9-4.8,3.1,0,3.8,9.2,5,11.8,6.4,10.1,5.4,6.1,19-3.8,21.7h0ZM195.7,108.2c-.8.2-1.5,0-2.2-.2,2.1-6.4,3.1-13.2,3.1-20.4,0-37.1-30.1-67.2-67.2-67.2S62.3,50.6,62.3,87.7s4.4,27.2,11.8,38c0,.5-.5.8-1.4.8-7.7-11.1-12.2-24.7-12.2-39.2,0-22.3,10.5-42,26.9-54.7,10.2-7.1,22.3-11.3,35.2-13.8,1.2-.2,2.5-.4,3.7-.6h3.5c38.2,0,69.3,31,69.3,69.3s-1.1,14.4-3.2,21h0l-.2-.3ZM200.3,87.5c0,2.5-.1,5.1-.4,7.5.3-2.5.4-5,.4-7.5Z"/>
      <path class="cls-1" d="M128.3,75.8c-13.6,2.5-10.1,24.7,3.8,22.3,13.4-2.4,10.1-24.8-3.8-22.3Z"/>
    </g>
  </g>
</svg>