<?xml version="1.0" encoding="UTF-8"?>
<svg id="Layer_1" data-name="Layer 1" xmlns="http://www.w3.org/2000/svg" version="1.1" viewBox="0 0 256 256">
  <defs>
    <style>
      .cls-1 {
        opacity: .8;
      }

      .cls-2 {
        fill: #fff;
        stroke-width: 0px;
      }
    </style>
  </defs>
  <g class="cls-1">
    <path class="cls-2" d="M97.2,198.4c-6.6-1.4-13.3-1.5-19.9-2.8-21.2-3.3-40.9-10.2-57.3-24.7-1.8-1.6-3.9-2.9-6.6-2.7-7.3,2-5.5,6.2-1.8,9.9,5.7,5.7,12.5,10.2,19.5,14.3,19.1,11.2,40,15.3,61.8,16.6,3.4,1.5,5.6,4.2,7.1,7.4.3.3.7.7,1,1-.4-.3-.9-.6-1.4-.9-5.4-1-10.9-.6-16.3-.3-18.3-2.7-35.7-8.1-52.1-16.7-1.3,0-3.3-.6-3.7,0-1.8,2.4.5,3.9,1.9,5.3,12.4,11.4,27.7,15.8,43.8,18.7.3.4.6.8.8,1.2.4,0,.9,0,1.3,0,5.4,2.2,11.4,0,16.8,1.7,3.4.2,6.6-.3,9.4-2.2,1.9-2.1,2.1-3.7,1.2-5.1,1.6,1.6,3.2,3.2,4.7,4.9,1,1,2.1,1.9,3.6,2.2,3,3.5,3,5.6-2.5,5.5-9.5-.2-18.9,0-29.7,0,4.1,4.8,8.6,5.2,12.6,6,9.7,1.8,19.5,3.4,29.3,5,5.4.7,4.2-3.5,4.8-6.3,1.6-1.4,1.6-3.3,1.4-5.2-1.4-14.3-15.5-29.7-29.7-32.8Z"/>
    <path class="cls-2" d="M239.3,170.5c-2.6,2.2-4.6,5.3-8.5,5.7-3-1.1-5.2.8-7.5,2.1-10.4,5.8-21,10.9-32.4,14.3-9.3,2.9-18.9,3.9-28.4,5.8-5.9.8-11.3,2.3-14,8.5,0,.3,0,.5,0,.8-7.9,6.1-11.9,14.8-15.3,23.9,1.7,3.2-4.3,10.3,4.6,9.9,13.8-.5,27.1-3.3,39.4-9.8,0,0,0,0,0,0,0,0,0,0,0,0,10.3-7.3,21.2-13.5,33.2-17.7,5-1.7,9.7-4.7,14.2-7.6,2.8-1.8,7.3-4.6,5.4-7.9-1.8-3.1-5.8.4-8.5,1.6-18.2,8.4-36.5,16.5-57.3,15.3-3.6.6-4.8,2.2-2.2,5.3,1.4,1.7,3.7,1.9,5.6,2.9,2.4.7,4,2.3,5.3,4.2-2.8-2.3-6.1-1.3-9.3-.9-4.6.5-9.2,1.7-14,.8.5-3.5,2.7-5.6,2.6-8.3-.1-.8-.5-1.5-1-2,0,0,0,0,0,0,5.9,1.2,8.5-4.7,13-6.5,19-3.2,37.4-8.3,54.5-17.3,9.2-4.9,19.2-8.8,26.2-17.1,1.6-1.8,3.5-4.1,1.2-6.4-2.4-2.5-4.7-1.1-7,.9Z"/>
    <path class="cls-2" d="M247.1,121.5c-3.7-.5-4.5,2.2-4.8,5-1,7.3-4.3,13.7-7,20.4h0c-1.5,1.7-2.9,3.4-4.4,5.1-1.6.6-2.9,1.6-4,2.8,1-1.9,1.5-4.2,2.3-6.2,2.4-6.9,3.6-14,3.5-21.3-.2-15.8-.2-31.6-.4-47.4,0-3.1.8-6.5-1.3-9.3,0,0,0,0,0,0-.6-3.2-3.6-3.7-5.8-5-30.2-18.3-61-35.6-92.5-51.6-3.8-1.9-6.2-1.3-9.5.4C90.7,30.5,59,47.7,27.9,66c-3.4,2.1-5.4,4.6-5,9.1.6,5.6.3,11.3.5,16.9,0,14.6-.2,29.2-.3,43.8-2.3,5-1.2,9.2.7,13.4-2.7-4.9-4.7-10.2-6.3-15.6-1-3.4-1.2-7.6-5.8-8.8-5.9-1.3-6.9,1.7-6.2,6.8,1.5,11.3,7.3,20.6,12.5,30.3,15.1,17.1,35.7,23.5,56.6,29.3,1.8.5,3.6.9,5.4,1.4h0s0,0,0,0c12.6-1.1,23.7,3,34.1,9.6,0,0,0,0,0,0,9.2.9,18.4,1.4,27.6.3,0,0,0,0,0,0,3-2,5.9-4.2,9.6-5,1.8-1.4,5.7-.5,5.2-4.5-1.7-2.7-4.6-2.4-7.2-3-28,4.6-53.7-5.6-80.1-12-1.5-.6-3.1-1.2-4.7-1.5-1.1,0-2.2,0-3.3,0,.3,0,.5,0,.8,0-1.7-7.7-7.9-13.3-9.5-21.1-5.3-7.1-4-17.1-10.1-23.9-1.9.3-3,1.5-2.8,3.3,1.1,9,.3,18.5,6.4,26.3,2.7,3.5,5.2,7.1,7.8,10.7,2.9.1,3.7,3.8,6.2,4.7-2.5-.5-4.8-1.5-7-3.1-3.7-1.7-6.4-4.8-10-6.5-1.3-.6-2.6-1.2-3.9-1.8.8-.4,1.4-1.5,1.7-3.2-3.7-18.7-5.6-37.6-5.1-56.7,0-2.7-.2-5.6-2.4-7.6,2-2.4,2.4-5.3,2-8.1-1.2-9.8,3.4-15.8,12.1-19.4,11.5-6.8,22.9-13.7,34.8-19.8,12.5-5.8,24.3-12.9,36.5-19.3,6.4-3.4,11.8-3.2,18.2,0,24,12.2,47.3,25.9,70.7,39.2,7.9,4.5,13,9.1,12.7,17.8-2.1,1.6-2.2,4.4-2.3,6.9-.3,8.9-.9,17.8.6,26.7.8,4.5,1.1,9,.2,13.5-.2,3.4-.8,6.8-.9,10.3,0,4.6-2.7,9.5,1.3,13.6,2,.2,3.5-.1,4.7-.8-1,1-2,1.9-3.3,2.5-9.4,8.9-20.8,13.9-33,17.3-8.5,3.3-18,4.4-24.8,11.5-1.9,4.8,1.7,5.2,4.8,6,7.7.8,14.9-1.7,22.2-3.4,12.1-2.8,22.8-8.8,33.6-14.7,3.3-1.8,6.3-4.1,6.6-8.4,0,0,0,0,0-.1,0,0,.2-.2.2-.4,1.3-1.6,2.8-3.2,4-5,7.6-10.5,13.5-21.8,15.9-34.7.5-2.8,1.2-6.3-3.2-6.9Z"/>
    <path class="cls-2" d="M119.1,207.2s0,0,0,0q11.2,15.3,19-1.4c-6.3.6-12.8-.8-19,1.4Z"/>
    <path class="cls-2" d="M112.1,52c-6.8-4.1-10.4,2.9-15.5,4.6-3.5,3.1-6.9,6.1-10.4,9.2,0,0,0,0,0,0-6.6,4.7-15.2,6.8-19.3,14.8-.3,3,1.4,2.6,3.2,1.9.9-.1,1.8-.3,2.7-.4,5.6-1,9.9-3.7,12.5-8.9.2-.8.1-1.5-.2-2.2,0-1.9,1.9-1.1,2.8-1.8,0,0,0,0,0,0,4.3-1.6,8.8-2.7,12.7-4.8,5-2.8,11.2-4.9,11.4-12.3Z"/>
    <path class="cls-2" d="M195.3,89c-1.9,8.6,4.7,14.9,6.2,22.5,2.1,2.1,4.1,4.2,6.2,6.2,3.2-9.8-3-17.6-5.6-26.2-.8-2.8-3.9-3.4-6.9-2.6Z"/>
    <path class="cls-2" d="M123.8,54.7c5.6.8,10.2-.5,10-7-.1-4.3-4.1-5.1-7.9-4.8-4.3.4-4.5,4-5.4,7,0,2.4,2,3.3,3.3,4.8Z"/>
    <path class="cls-2" d="M188.6,82.3c.7-2.7,1.2-5.4-2.2-6.6-2.3-.8-5-1.7-6.8.1-2.3,2.2,1.1,4.2,1.1,6.4,2.6,2.1,5.3,2.4,7.9,0Z"/>
    <path class="cls-2" d="M48.6,112.2c3.5,1.1,4.2-3.2,5.7-5.4,3.3-4.8,6.2-9.8,9.3-14.7,1.2-1.6,1.5-3.9-.1-4.7-2-1-4.3.2-6.2,1.6-4.6,4.5-6.8,10.5-9.9,16,.6,2.4-1.7,6.3,1.2,7.2Z"/>
    <path class="cls-2" d="M196.9,170.4c8.7-3.7,13.9-8.8,15.9-16.4,1.7-6.5,2.4-13.2,3.6-19.9-4.6-4.1-7.1-1.9-8.1,3-1.2,6.2-2.2,12.4-5.2,18.1-.7,5-3.6,9.2-6.2,15.2Z"/>
    <path class="cls-2" d="M54.2,151.5c5.5,9.5,9.7,20,20.6,25,14,2,27.5,6.4,41.2,9.5,24,5.5,45.6-4.6,67.7-11.4,11.2-4.3,14.4-14.5,17.9-24.4,0-2.2.2-4.4-.2-6.4-.6-3.2,0-8.1-4.8-7.9-5.1.1-2.9,4.9-3.1,7.6-.5,8.4-2.7,15.7-11.5,20.5-1.2-9.9-.6-19,0-28.1.1-2,.4-3.8,3.3-3.1,4.8,1.2,7.3-2.5,10.2-5.1,1.4-4.8-1.1-8.2-4.2-11.5-3.7-3.9-8.1-7-12.1-10.6-4.9-4.4-9.4-8.9-7.8-16.5.5-2.3,0-4.9-2.5-6.3,1.1-11.3-7.7-8.6-13.8-9.7-7.2-1.2-4.6,5.4-6.5,9.3-6.5-5.7-12.6-10.9-18.6-16.1-3.8-3.4-7-.7-10,1.3-7.7,5.3-14.8,11.3-21.5,17.8-5.1,4.2-10.1,8.6-15,12.9-1.5,1.6-3.4,2.8-5.1,4.2-6.7,6.8-15.8,10.9-21.5,18.8-2.4,6,1.2,9.8,5.9,11.2,6.1,1.9,6.8,5.7,6.4,10.9-.2,2.7,0,5.3.6,8,.7,3.1,2.4,6.2,0,9.3-3.7-2.4-3.6-5.9-4.1-9.2-.7-4-.2-8.1-1.7-12-2.1-5.3-6.9-6.5-10.9-2.9-4.4,4-3.9,10.6,1.1,15ZM105.5,104.2c5.2-3.2,10.2-7.2,14.3-11.8,5.8-6.6,10-5,15.6.2,9.2,8.6,18.9,16.9,28.8,24.8,5.3,4.1,7.6,8.7,6.3,15.2-.1.2-.2.5-.3.7.1-.2.2-.5.3-.7.2,10.4.4,20.8.8,31.2.1,3.1-.6,5.2-3.7,6.1-4.3,1.2-8.3,3.8-13,3.4-3.4,1.4-6.9,2.5-10.3,3.3v-41.2h-.5c0-1.2.1-2.4-.3-3.6-3-7.8-11.6-12.2-19.7-10.1-7.3,1.9-12.1,7.1-13,13.7h-.2v40.9c-3.8-.8-7.7-1.8-11.5-2.9,0,0,0,0,0,0,0,0,0,0,0,0-5.1-.7-10-2.1-14.3-5-2.1-.7-1.5-2.6-1.5-4.1,0-5.1,1-10.4.2-15.4-3.1-20.2,5.2-34.4,22.1-44.8Z"/>
  </g>
</svg>