<?xml version="1.0" encoding="UTF-8"?>
<svg id="Layer_1" data-name="Layer 1" xmlns="http://www.w3.org/2000/svg" version="1.1" viewBox="0 0 256 256">
  <defs>
    <style>
      .cls-1 {
        display: none;
        fill: #000;
      }

      .cls-1, .cls-2 {
        stroke-width: 0px;
      }

      .cls-2 {
        fill: #fff;
        isolation: isolate;
        opacity: .8;
      }
    </style>
  </defs>
  <circle class="cls-1" cx="128" cy="130.4" r="125.6"/>
  <path class="cls-2" d="M231.8,73.9c1.2.8,1.9,2.2,2.9,3.5-.9,1.5-1.4,2.7-2.3,3.6-8,7.8-16,15.5-24,23.2-2,1.9-4.5,1.9-6.2.3-1.7-1.7-1.6-4.2.6-6.3,7.9-7.7,15.9-15.3,23.8-23,1.5-1.4,3.2-2.5,5.1-1.2h0Z"/>
  <path class="cls-2" d="M185.6,63.2c2.5-2.9,5.4-5.5,8.2-8.2,5.4-5.2,10.7-10.4,16.1-15.5,2.4-2.3,5.4-2.1,6.8.2,1.1,1.9.8,3.8-.7,5.3-8.2,7.9-16.4,15.9-24.6,23.7-.7.7-1.9,1-3.3,1.8-1.2-1-2.9-1.7-3.3-2.9-.4-1.3-.1-3.4.8-4.5h0Z"/>
  <path class="cls-2" d="M196.5,80.4c-.9,1.5-1.3,2.7-2.2,3.6-10.9,11-21.8,21.9-32.8,32.8-2.1,2.1-4.4,2.3-6.1.6-1.8-1.7-1.8-4.3.2-6.4,11-11,21.9-22,33-32.9,1-1,3.2-1.3,4.7-1,1.2.3,2,2,3.1,3.3h.1Z"/>
  <path class="cls-2" d="M174.9,29.8c.9-.9,2.1-1.3,3.6-2.2,1.2,1.1,2.9,1.9,3.3,3.1.4,1.3,0,3.4-.8,4.5-1.6,2.2-3.8,4-5.8,5.9-9,9-18.1,18.1-27.1,27.1-1.6,1.6-3.5,2.7-5.4,1.3-1.2-.8-1.9-2.7-2.2-4.2-.2-.8.8-2,1.5-2.7,10.9-11,21.8-21.9,32.8-32.7h0Z"/>
  <path class="cls-2" d="M115.8,39.5c.3-.7.9-1.4,1.5-2,8.6-8.6,17.1-17.2,25.8-25.7,1.1-1,2.8-1.9,4.3-1.9s2.9,1.4,3.1,2.5c.3,1.4-.1,3.4-1.1,4.4-3.7,4.1-7.7,7.9-11.6,11.8-4.9,4.9-9.7,9.8-14.7,14.6-1,1-2.3,1.6-2.9,2-3.8,0-5.7-3.1-4.4-5.7Z"/>
  <path class="cls-2" d="M127.1,57.6c1.5-1.5,3.2-2.1,5-1,1.2.7,1.9,2.2,2.9,3.5-1,1.5-1.4,2.7-2.3,3.6-10.8,10.9-21.7,21.8-32.6,32.6-2.1,2.1-4.7,2.2-6.3.5-1.8-1.8-1.6-4.1.5-6.3,10.9-10.9,21.9-21.8,32.8-32.8h0Z"/>
  <path class="cls-2" d="M97.7,63.3c1.2.7,2,2.1,3.1,3.3-.9,1.6-1.3,2.8-2.1,3.7-10.9,11-21.8,21.9-32.7,32.8-2.2,2.1-4.6,2.2-6.3.4-1.7-1.7-1.5-4.2.6-6.3,10.8-10.9,21.7-21.7,32.6-32.6s3.1-2.3,4.9-1.3h0Z"/>
  <path class="cls-2" d="M55.5,48.8c6.2-6.5,12.5-12.9,18.8-19.4,1.4-1.4,3-2.5,4.9-1.3,1.3.8,2.1,2.2,3.3,3.5-1,1.5-1.5,2.7-2.3,3.6-6.2,6.5-12.5,12.9-18.8,19.4-2.1,2.1-4.5,2.3-6.3.5s-1.7-4,.5-6.3h-.1Z"/>
  <path class="cls-2" d="M17,106.6c.4-.8,1.1-1.5,1.7-2.1,10.7-10.7,21.4-21.3,32-32,1.4-1.4,3-2.2,4.9-1.6,3,1,3.6,4.6,1.1,7.2-4.8,4.9-9.7,9.8-14.6,14.7-5.9,5.9-11.7,11.7-17.6,17.6-1.1,1-2.5,1.8-3.1,2.2-3.8,0-5.8-3.2-4.5-5.9h.1Z"/>
  <path class="cls-2" d="M11.6,138.8c8.5-8.6,17-17.1,25.6-25.6,1.4-1.4,3.1-2.3,5-1.2,1.2.7,2,2.1,3.1,3.3-.9,1.5-1.3,2.8-2.2,3.6-8.5,8.6-17,17.1-25.6,25.6-2.1,2.1-4.6,2.2-6.3.4s-1.6-4.1.4-6.1Z"/>
  <path class="cls-2" d="M224.6,163.8c-1.7,1.8-3.5,3.5-5.2,5.3-1.9,2-3.9,2.4-6.5,1.3-8-3.3-16-6.5-24-9.7-.8-.3-1.7-.6-2.9-1.1v79.5c0,5.8-1.1,7-6.9,7h-9.7c-4.8,0-6.3-1.5-6.3-6.2v-84.6c-4.2-.5-8.3-1.1-12.3-1.6-9.7-1.2-19.3-2.7-29-3.3-5.2-.4-10.6.7-15.9,1.2-8.8,1-17.5,2.2-26.3,3.1-2.2.2-2.9,1-2.9,3.2v81.2c0,5.7-1.3,7-7,7h-9.9c-4.6,0-6.1-1.5-6.1-6.1v-80.5c-1.2.4-2,.7-2.8,1.1-7.8,3.2-15.7,6.4-23.5,9.5-3.6,1.5-4.8,1.2-7.6-1.6-1.6-1.6-3.1-3.1-4.7-4.7-3.6-3.6-3.1-6.6,1.3-8.9,15.4-8.2,30.8-16.5,46.3-24.7,17.9-9.5,35.8-19,53.6-28.6,2.5-1.4,4.7-1.5,7.2,0,3.2,1.8,6.5,3.4,9.4,4.9,6.4-6.2,12.6-12.2,18.8-18.1,1.7-1.6,3.7-1.5,5.5,0,1.7,1.6,1.8,4.1,0,5.9-2.8,2.8-5.7,5.5-8.5,8.3-2.6,2.6-5,5.3-7.7,8.2,10.6,5.7,21.4,11.4,31.9,17,4.6-4.3,9.1-8.5,13.6-12.6,1.9-1.7,4.1-1.6,5.7,0,1.6,1.6,1.7,3.9.1,5.7-.6.7-1.3,1.3-2,1.9-3.2,2.9-6.3,5.9-9.7,9,1.1.6,1.9,1.2,2.8,1.6,13.2,7.1,26.5,14.1,39.7,21.2,4.6,2.4,5.1,5.4,1.4,9.1h0Z"/>
  <path class="cls-2" d="M208.6,138.1c-.9.8-2.1,1.3-3.6,2.3-1.3-1-3.1-1.8-3.4-2.9-.4-1.4,0-3.6.9-4.7,2.7-3.1,5.8-5.9,8.7-8.8,5.4-5.3,10.8-10.5,16.2-15.8,2.2-2.1,4.6-2.4,6.3-.7,1.8,1.7,1.7,4.4-.5,6.5-8.2,8.1-16.4,16.1-24.7,24.1h.1Z"/>
</svg>